<?xml version="1.0" encoding="UTF-8"?>
<svg version="1.1" xmlns="http://www.w3.org/2000/svg" width="861" height="270">
<path d="M0 0 C13.86 0 27.72 0 42 0 C42 1.32 42 2.64 42 4 C41.30132812 4.18175781 40.60265625 4.36351562 39.8828125 4.55078125 C38.97273438 4.80214844 38.06265625 5.05351563 37.125 5.3125 C35.76761719 5.67794922 35.76761719 5.67794922 34.3828125 6.05078125 C31.67886681 6.86669852 31.67886681 6.86669852 30 10 C28.24185517 18.29630737 28.85362801 27.16177342 28.8671875 35.60546875 C28.86651228 37.09898392 28.86554044 38.59249899 28.86428833 40.08601379 C28.862823 43.19822244 28.8649291 46.31040217 28.86962891 49.42260742 C28.87534046 53.39672984 28.87203078 57.37078491 28.86605644 61.3449049 C28.86243199 64.42223106 28.86359781 67.49954141 28.86618423 70.57686806 C28.86684752 72.04198528 28.86604619 73.50710397 28.86370468 74.97221947 C28.86114538 77.02212676 28.86506387 79.0719268 28.87060547 81.12182617 C28.87140106 82.28413254 28.87219666 83.4464389 28.87301636 84.64396667 C29.00679232 88.17951328 29.31509029 91.52735584 30 95 C33.36067267 97.88057657 36.66680191 98.49613976 41 99 C41 100.65 41 102.3 41 104 C27.14 104 13.28 104 -1 104 C-1 102.35 -1 100.7 -1 99 C-0.38511719 98.91363281 0.22976563 98.82726562 0.86328125 98.73828125 C1.67152344 98.59777344 2.47976563 98.45726562 3.3125 98.3125 C4.11300781 98.18488281 4.91351563 98.05726563 5.73828125 97.92578125 C8.94841151 96.61179011 9.53088802 95.12378319 11 92 C11.27953772 89.2739345 11.4006902 86.78196277 11.37231445 84.06030273 C11.37596512 83.27595856 11.37961578 82.49161438 11.38337708 81.6835022 C11.39145992 79.09997673 11.37789279 76.51708289 11.36328125 73.93359375 C11.36276242 72.13428243 11.363281 70.33497055 11.36479187 68.53565979 C11.36470225 64.76888543 11.35429304 61.00232556 11.33618164 57.2355957 C11.31347856 52.40788255 11.31295445 47.58048223 11.31969929 42.75273037 C11.32304066 39.03897827 11.31640626 35.32529748 11.30657005 31.61155891 C11.30272191 29.83136429 11.30156824 28.05116174 11.3031559 26.27096367 C11.3035268 23.78392288 11.29090011 21.29728325 11.2746582 18.81030273 C11.27713562 18.07512924 11.27961304 17.33995575 11.28216553 16.58250427 C11.24407669 12.92770832 11.15462346 10.03952606 9 7 C6.83718718 5.8774351 6.83718718 5.8774351 4.375 5.25 C3.55773437 5.00765625 2.74046875 4.7653125 1.8984375 4.515625 C1.27195312 4.34546875 0.64546875 4.1753125 0 4 C0 2.68 0 1.36 0 0 Z " fill="#000000" transform="translate(297,35)"/>
<path d="M0 0 C12.21 0 24.42 0 37 0 C37 1.32 37 2.64 37 4 C36.32195312 4.18433594 35.64390625 4.36867188 34.9453125 4.55859375 C29.58351686 6.22951344 25.48569586 8.07658245 21.35546875 11.9296875 C20.49630859 12.72979248 19.63714844 13.52989746 18.75195312 14.35424805 C14.35323595 18.58321345 9.99913654 22.85222179 5.69360352 27.17602539 C4.17512752 28.6999166 2.65130177 30.21831368 1.12695312 31.73632812 C0.14030385 32.7236375 -0.84603557 33.71125665 -1.83203125 34.69921875 C-2.70577393 35.57408936 -3.5795166 36.44895996 -4.47973633 37.3503418 C-7.13240548 40.1392034 -9.56789151 43.01857374 -12 46 C-11.27296875 46.84820312 -10.5459375 47.69640625 -9.796875 48.5703125 C-3.375 56.0625 -3.375 56.0625 3.046875 63.5546875 C3.78019043 64.41018188 3.78019043 64.41018188 4.52832031 65.28295898 C5.51215143 66.43081636 6.49587481 67.5787661 7.47949219 68.72680664 C10.07754361 71.75886043 12.6777687 74.78901296 15.28125 77.81640625 C15.82007813 78.44353516 16.35890625 79.07066406 16.9140625 79.71679688 C17.93941633 80.91009659 18.96541414 82.10284338 19.9921875 83.29492188 C22.10311706 85.75281361 24.17003795 88.21652314 26.171875 90.765625 C30.52150355 96.08183768 35.53899446 97.66324023 42 99 C42 100.65 42 102.3 42 104 C16.72306369 105.90202162 16.72306369 105.90202162 11.296875 101.9375 C8.79730907 99.0992832 6.90783543 96.26125714 5 93 C3.57074904 91.20561194 2.11193374 89.43438719 0.625 87.6875 C-0.1071875 86.78128906 -0.839375 85.87507813 -1.59375 84.94140625 C-4.30587327 81.62609972 -7.08162559 78.3718124 -9.875 75.125 C-10.37604248 74.54081299 -10.87708496 73.95662598 -11.39331055 73.35473633 C-13.97558525 70.34573504 -16.56859882 67.34682178 -19.17578125 64.359375 C-20.17983702 63.19804592 -21.18374888 62.0365924 -22.1875 60.875 C-22.65720215 60.34277832 -23.1269043 59.81055664 -23.61083984 59.26220703 C-25.91264312 56.58551162 -27.62279656 54.55476519 -28 51 C-26.06462622 48.71383973 -24.18585596 46.76974145 -22 44.75 C-20.78340626 43.58255009 -19.56854742 42.41328944 -18.35546875 41.2421875 C-17.76942871 40.68112305 -17.18338867 40.12005859 -16.57958984 39.54199219 C-14.14467384 37.16503245 -11.94451714 34.62049652 -9.74609375 32.02734375 C-7.51714052 29.43936449 -5.19290437 26.94601031 -2.875 24.4375 C3.92092997 17.64241158 3.92092997 17.64241158 7.3125 9.0625 C7.1578125 8.0415625 7.1578125 8.0415625 7 7 C4.69 6.01 2.38 5.02 0 4 C0 2.68 0 1.36 0 0 Z " fill="#000000" transform="translate(355,35)"/>
<path d="M0 0 C12.87 0 25.74 0 39 0 C39 1.32 39 2.64 39 4 C38.37351562 4.13535156 37.74703125 4.27070312 37.1015625 4.41015625 C36.28429687 4.62542969 35.46703125 4.84070312 34.625 5.0625 C33.81289063 5.25972656 33.00078125 5.45695312 32.1640625 5.66015625 C29.49474735 7.31281888 29.15232011 8.74993324 28.38693237 11.71470642 C27.55678177 16.61772818 27.71698293 21.58805898 27.734375 26.546875 C27.73246155 27.75386047 27.7305481 28.96084595 27.72857666 30.20440674 C27.72721874 32.75280974 27.73088766 35.30121975 27.73925781 37.84960938 C27.74992513 41.72281708 27.73936807 45.59555701 27.7265625 49.46875 C27.72788489 51.95312601 27.73044893 54.43750174 27.734375 56.921875 C27.73032654 58.06807312 27.72627808 59.21427124 27.72210693 60.39520264 C27.77765741 70.0679073 27.94801377 79.1324179 34 87 C34 87.66 34 88.32 34 89 C35.33151682 89.67028738 36.66529587 90.336082 38 91 C38.69996094 91.35320312 39.39992188 91.70640625 40.12109375 92.0703125 C48.66678325 95.96126725 57.42163816 96.54795297 66.375 93.5 C72.79793641 90.54440487 76.45908266 85.7222873 79.875 79.6875 C82.96672417 69.55351521 82.16335259 58.44443694 82.125 47.9375 C82.12217514 46.77670929 82.12217514 46.77670929 82.11929321 45.59246826 C83.65611535 25.16908045 83.65611535 25.16908045 78 7 C75.53961915 5.76984757 75.53961915 5.76984757 72.8125 5.1875 C71.91144531 4.95417969 71.01039063 4.72085938 70.08203125 4.48046875 C69.39496094 4.32191406 68.70789063 4.16335937 68 4 C68 2.68 68 1.36 68 0 C79.55 0 91.1 0 103 0 C103 1.32 103 2.64 103 4 C102.37351562 4.15855469 101.74703125 4.31710938 101.1015625 4.48046875 C100.28429687 4.71378906 99.46703125 4.94710937 98.625 5.1875 C97.81289063 5.40792969 97.00078125 5.62835938 96.1640625 5.85546875 C93.19553989 7.42546356 92.99026706 8.82894246 92 12 C91.70223433 15.01220515 91.70223433 15.01220515 91.74462891 18.26806641 C91.73766998 19.51351227 91.73071106 20.75895813 91.72354126 22.04214478 C91.7242223 22.70307758 91.72490334 23.36401039 91.72560501 24.04497147 C91.72657671 26.13209244 91.71355001 28.21870734 91.69662476 30.30575562 C91.65056744 36.23748804 91.62578856 42.16916898 91.61914062 48.10107422 C91.61408352 51.73808279 91.58961992 55.37456518 91.55381393 59.0113945 C91.54410802 60.38664951 91.5416329 61.76197778 91.54698563 63.13725662 C91.59157119 75.16356062 89.74219002 86.14549063 81 95 C71.92289862 102.68538226 63.34886341 105.53019718 51.5625 105.375 C50.24668945 105.39240234 50.24668945 105.39240234 48.90429688 105.41015625 C38.51805845 105.36423331 29.27962808 102.33484497 21 96 C13.55428497 88.42888345 10.89022286 78.95801904 10.8581543 68.52905273 C10.85111984 67.24099228 10.84408539 65.95293182 10.83683777 64.62583923 C10.83502188 63.94275129 10.83320599 63.25966335 10.83133507 62.55587578 C10.82413214 60.40776369 10.80844011 58.2598751 10.78999329 56.11183167 C10.73768393 50.00728293 10.68951272 43.90286411 10.67407227 37.7980957 C10.66399296 34.05734552 10.63468104 30.31716995 10.59275246 26.5766468 C10.58044687 25.15375169 10.57532042 23.73077548 10.57755089 22.3078289 C10.57990274 20.31900849 10.55555239 18.33021076 10.5300293 16.34155273 C10.52416306 15.21079819 10.51829681 14.08004364 10.51225281 12.9150238 C9.88216803 9.32946586 8.86299281 8.18735818 6 6 C2.36456099 4.72234735 2.36456099 4.72234735 -1 4 C-0.67 2.68 -0.34 1.36 0 0 Z " fill="#000000" transform="translate(407,35)"/>
<path d="M0 0 C29.37 0 58.74 0 89 0 C89.99 12.87 89.99 12.87 91 26 C89.35 26 87.7 26 86 26 C85.81824219 25.40832031 85.63648438 24.81664063 85.44921875 24.20703125 C83.5498925 17.66084788 83.5498925 17.66084788 80 12 C73.83803901 9.1227449 67.65031812 8.49477202 60.9375 8.3125 C60.07189453 8.27833984 59.20628906 8.24417969 58.31445312 8.20898438 C56.21005613 8.12759886 54.1050543 8.06210231 52 8 C52.495 8.99 52.495 8.99 53 10 C53.08687053 12.21386747 53.10702487 14.43044472 53.09765625 16.64599609 C53.09619598 17.32926971 53.09473572 18.01254333 53.0932312 18.71652222 C53.08942038 20.20394993 53.08329877 21.69137307 53.07516479 23.17878342 C53.06239435 25.54299575 53.05588212 27.90715183 53.05102539 30.27139282 C53.03765178 36.15300369 53.01363968 42.03456227 52.98962402 47.9161377 C52.96975372 52.87150409 52.95416081 57.82684939 52.94406128 62.78224564 C52.9376539 65.09293643 52.92513798 67.40353995 52.91235352 69.71420288 C51.77601957 83.47538207 51.77601957 83.47538207 55.38769531 95.77523804 C57.57090328 97.43367772 59.49912483 97.73361848 62.1875 98.1875 C63.08855469 98.34605469 63.98960937 98.50460938 64.91796875 98.66796875 C65.60503906 98.77753906 66.29210937 98.88710937 67 99 C67 100.65 67 102.3 67 104 C52.15 104 37.3 104 22 104 C22 102.35 22 100.7 22 99 C22.60328125 98.90203125 23.2065625 98.8040625 23.828125 98.703125 C24.62734375 98.55359375 25.4265625 98.4040625 26.25 98.25 C27.43335938 98.04117188 27.43335938 98.04117188 28.640625 97.828125 C31.76449365 96.73166779 32.97616323 95.64347351 35 93 C35.40280083 90.12212709 35.56445043 87.62139664 35.54589844 84.74316406 C35.55623611 83.91352646 35.56657379 83.08388885 35.57722473 82.22911072 C35.60668628 79.49108481 35.60815259 76.75379705 35.609375 74.015625 C35.6243544 72.11560656 35.64108105 70.21560115 35.65948486 68.31561279 C35.70319755 63.31792609 35.72316617 58.32041505 35.73822021 53.3225708 C35.75777716 48.22145179 35.79974875 43.12052286 35.83984375 38.01953125 C35.91518832 28.01307941 35.96545409 18.00667003 36 8 C33.27821257 8.13309612 30.5571226 8.27345021 27.8359375 8.41796875 C27.07015381 8.45466675 26.30437012 8.49136475 25.51538086 8.5291748 C16.10143507 8.94621941 16.10143507 8.94621941 8.37890625 13.77734375 C6.85392058 16.23546512 6.08174566 18.46606332 5.3125 21.25 C5.06113281 22.14203125 4.80976562 23.0340625 4.55078125 23.953125 C4.36902344 24.62859375 4.18726563 25.3040625 4 26 C2.02 26 0.04 26 -2 26 C-1.85771699 23.16644901 -1.71126584 20.33321213 -1.5625 17.5 C-1.52318359 16.70851563 -1.48386719 15.91703125 -1.44335938 15.1015625 C-1.40146484 14.31523438 -1.35957031 13.52890625 -1.31640625 12.71875 C-1.26141968 11.65043945 -1.26141968 11.65043945 -1.20532227 10.56054688 C-0.92212625 7.02884675 -0.43945956 3.51567648 0 0 Z " fill="#000000" transform="translate(526,35)"/>
<path d="M0 0 C13.2 0 26.4 0 40 0 C40 1.32 40 2.64 40 4 C36.7 4.99 33.4 5.98 30 7 C29.21664957 10.91675215 28.86503139 13.99047757 28.83886719 17.91674805 C28.82925964 19.08533859 28.8196521 20.25392914 28.80975342 21.45793152 C28.80550354 22.7131813 28.80125366 23.96843109 28.796875 25.26171875 C28.78832489 27.21317558 28.78832489 27.21317558 28.77960205 29.20405579 C28.76911916 31.95692329 28.76325939 34.70976185 28.75976562 37.46264648 C28.75429901 40.96482302 28.73029935 44.46660724 28.70179367 47.96866131 C28.67851613 51.33717171 28.6767074 54.70563222 28.671875 58.07421875 C28.6595282 59.31934738 28.6471814 60.56447601 28.63446045 61.84733582 C28.65848559 71.32859783 29.59020866 80.55078303 36 88 C44.38723892 94.70605517 53.54714493 95.8373088 64 95 C71.50712859 93.8101093 77.09182844 90.86033417 82 85 C87.38061362 76.31303829 87.15280984 66.71802637 87.1328125 56.81640625 C87.13424759 55.23399391 87.13424759 55.23399391 87.13571167 53.61961365 C87.13638929 51.39834534 87.13456429 49.177075 87.13037109 46.95581055 C87.12502234 43.57661437 87.13032761 40.19755143 87.13671875 36.81835938 C87.13605779 34.65104138 87.13477626 32.48372346 87.1328125 30.31640625 C87.13584885 28.81600548 87.13584885 28.81600548 87.13894653 27.28529358 C87.53530635 16.95999268 87.53530635 16.95999268 84.375 7.5625 C81.37881777 5.59132748 78.47708494 4.80240422 75 4 C75 2.68 75 1.36 75 0 C85.89 0 96.78 0 108 0 C108 1.32 108 2.64 108 4 C104.7 4.99 101.4 5.98 98 7 C97.12312028 15.31043824 96.85263005 23.49483688 96.82421875 31.84765625 C96.80695778 33.82292563 96.78967283 35.79819512 96.77101612 37.77345181 C96.72588186 42.58730599 96.68767089 47.40103282 96.67407227 52.21508789 C96.66589669 54.93407643 96.6472282 57.6526102 96.61714172 60.3714447 C96.58925025 62.91458564 96.57604388 65.45794516 96.58000183 68.00123596 C96.39089284 81.36064591 92.05917366 89.13161482 82.6875 98.25 C70.8379935 105.96595772 55.71719785 107.3432121 42 105 C34.21987448 103.16434691 27.88249174 100.46042955 22 95 C21.44570313 94.48695313 20.89140625 93.97390625 20.3203125 93.4453125 C11.78457391 84.56984302 11.41700948 73.31288125 11.4609375 61.62890625 C11.45100829 60.17445919 11.43905868 58.72002468 11.42520142 57.26560974 C11.39310618 53.47126831 11.38246947 49.67721526 11.37835693 45.88275146 C11.36953727 39.78675763 11.33405541 33.6909969 11.2861824 27.59519768 C11.27363413 25.47463474 11.27435051 23.35437229 11.27645874 21.23377991 C11.26949982 19.94821701 11.26254089 18.66265411 11.25537109 17.33813477 C11.25411224 16.20771255 11.25285339 15.07729034 11.2515564 13.91261292 C11.00308752 11.03574846 10.59750472 9.38249337 9 7 C6.83718718 5.8774351 6.83718718 5.8774351 4.375 5.25 C3.55773437 5.00765625 2.74046875 4.7653125 1.8984375 4.515625 C1.27195312 4.34546875 0.64546875 4.1753125 0 4 C0 2.68 0 1.36 0 0 Z " fill="#000000" transform="translate(632,35)"/>
<path d="M0 0 C7.18580222 -0.07661597 14.3714975 -0.12883556 21.55761719 -0.16479492 C23.9977614 -0.17979978 26.43787902 -0.20021015 28.87792969 -0.22631836 C32.40306192 -0.26306851 35.92783488 -0.27981002 39.453125 -0.29296875 C41.06637665 -0.31619453 41.06637665 -0.31619453 42.71221924 -0.33988953 C54.06078192 -0.34236172 64.12615435 1.59883512 73 9 C78.72808003 14.72808003 80.19026708 21.0232235 80.4375 28.875 C80.19974912 38.14728451 77.58223483 45.38199139 71.18359375 52.1796875 C61.44882945 60.29489352 50.24134387 62.34449996 38 62.125 C37.03449219 62.11597656 36.06898438 62.10695312 35.07421875 62.09765625 C32.71587901 62.07430635 30.35807714 62.04156047 28 62 C28.06896613 66.34219879 28.15697379 70.68347274 28.26245117 75.02490234 C28.29565355 76.50103138 28.32370017 77.97728594 28.34643555 79.45361328 C28.38006951 81.57899332 28.43238519 83.70322804 28.48828125 85.828125 C28.51446533 87.1059082 28.54064941 88.38369141 28.56762695 89.70019531 C29.01954764 93.14918457 29.5637348 94.5726047 32 97 C34.25157533 97.90043828 34.25157533 97.90043828 36.6875 98.25 C37.49574219 98.39953125 38.30398438 98.5490625 39.13671875 98.703125 C39.75160156 98.80109375 40.36648438 98.8990625 41 99 C41 100.65 41 102.3 41 104 C27.47 104 13.94 104 0 104 C0 102.35 0 100.7 0 99 C0.93972656 98.83177734 0.93972656 98.83177734 1.8984375 98.66015625 C2.71570313 98.46292969 3.53296875 98.26570313 4.375 98.0625 C5.59316406 97.80146484 5.59316406 97.80146484 6.8359375 97.53515625 C9.74840842 95.46908933 9.93351417 93.3496723 10.61306763 89.95851135 C11.44993094 83.55979727 11.28507994 77.0943742 11.265625 70.65234375 C11.26697492 69.07011353 11.26891817 67.48788372 11.27142334 65.90565491 C11.27435836 62.60332253 11.27012893 59.30109895 11.26074219 55.9987793 C11.2493392 51.78364639 11.25592275 47.568768 11.26788712 43.35364437 C11.27514172 40.09096893 11.27280147 36.82835305 11.26763153 33.56567574 C11.26630547 32.01207002 11.26790584 30.45845876 11.27259064 28.90485954 C11.43728537 17.77080529 11.43728537 17.77080529 9 7 C6.90758949 5.42618587 6.90758949 5.42618587 4.375 5 C3.55773437 4.79375 2.74046875 4.5875 1.8984375 4.375 C1.27195312 4.25125 0.64546875 4.1275 0 4 C0 2.68 0 1.36 0 0 Z M28 7 C28 23.17 28 39.34 28 56 C43.87730072 56.22882888 43.87730072 56.22882888 57 49 C63.32832823 40.68227861 63.61255803 33.30946716 63 23 C62.01160516 17.23285211 59.45007018 13.9303616 55.01171875 10.2265625 C46.27457195 4.89944775 38.78212098 7 28 7 Z " fill="#000000" transform="translate(757,35)"/>
<path d="M0 0 C0.63711914 0.20898926 1.27423828 0.41797852 1.93066406 0.63330078 C17.92166853 6.05983636 31.64170574 14.60582799 44 26 C44.65097656 26.56976563 45.30195313 27.13953125 45.97265625 27.7265625 C59.13735437 39.86422744 67.66084109 56.53577551 73.375 73.25 C73.61387939 73.94585205 73.85275879 74.6417041 74.09887695 75.35864258 C83.07883904 103.24105111 79.3159418 135.6462298 66.22265625 161.61328125 C51.40982284 188.84587274 28.00493631 208.16638132 -1.3359375 217.96875 C-30.37915933 226.14296169 -61.6914799 223.02406766 -88.125 208.3125 C-115.09289444 192.1994137 -133.50155973 168.19521582 -142 138 C-142.47953125 136.37191406 -142.47953125 136.37191406 -142.96875 134.7109375 C-150.11181018 105.94027843 -144.12580446 75.5977955 -129.90625 50.12109375 C-115.1899645 26.02619187 -93.73603147 8.84550295 -67 0 C-66.36771484 -0.21172852 -65.73542969 -0.42345703 -65.08398438 -0.64160156 C-45.26518208 -6.92585495 -19.68080814 -6.57538521 0 0 Z M-111.42382812 42.17382812 C-128.63754044 62.11784425 -136.68903513 90.0210311 -135 116 C-133.34874983 133.49232159 -128.62107213 149.22681528 -119 164 C-114.67899518 162.55966506 -113.14178001 159.25329273 -110.6875 155.625 C-109.60860366 154.06253491 -108.52780166 152.50138436 -107.4453125 150.94140625 C-106.88102539 150.12687988 -106.31673828 149.31235352 -105.73535156 148.47314453 C-102.91359573 144.45170578 -99.98968073 140.50752925 -97.0625 136.5625 C-92.50156419 130.40320193 -87.97620925 124.22116063 -83.5 118 C-78.46006391 110.99774659 -73.35786473 104.04386551 -68.23046875 97.10546875 C-63.75012627 91.03564779 -59.32332767 84.92900005 -54.92089844 78.80249023 C-52.01350296 74.76359919 -49.07898127 70.74733778 -46.109375 66.75390625 C-45.14354492 65.45356445 -45.14354492 65.45356445 -44.15820312 64.12695312 C-42.91032664 62.44991953 -41.65915483 60.77533167 -40.40429688 59.10351562 C-39.84291016 58.34876953 -39.28152344 57.59402344 -38.703125 56.81640625 C-38.20458008 56.15068604 -37.70603516 55.48496582 -37.19238281 54.79907227 C-35.82258614 52.90194756 -35.82258614 52.90194756 -35 50 C-34.34 50 -33.68 50 -33 50 C-32.63261719 50.80630859 -32.63261719 50.80630859 -32.2578125 51.62890625 C-26.70804581 62.09073352 -18.35560789 71.52147792 -11.17626953 80.89501953 C-6.04382039 87.60390674 -1.00472781 94.37535495 3.99121094 101.1862793 C7.63097906 106.14709846 11.29945365 111.08436721 15 116 C19.29082188 121.69972721 23.53026287 127.43498276 27.75 133.1875 C35.36480079 143.56123977 43.17133335 153.78716245 51 164 C54.45778816 160.70222841 56.53963527 157.45046067 58.5 153.125 C58.80188232 152.46443604 59.10376465 151.80387207 59.41479492 151.12329102 C70.89007328 125.26771752 70.94832088 96.16202637 60.95947266 69.90600586 C50.88002291 44.93915218 31.68764315 25.06334047 7.03613281 14.12890625 C-35.49838678 -3.64671388 -80.87114846 8.7954671 -111.42382812 42.17382812 Z M-35 68 C-36.64154526 69.77154063 -36.64154526 69.77154063 -38.34375 72.1015625 C-39.00777832 72.97699707 -39.67180664 73.85243164 -40.35595703 74.75439453 C-41.06349121 75.70169434 -41.77102539 76.64899414 -42.5 77.625 C-43.22687012 78.58905762 -43.95374023 79.55311523 -44.70263672 80.54638672 C-48.96787059 86.22293214 -53.16971777 91.93924686 -57.26489258 97.73950195 C-60.84471556 102.80898597 -64.50795018 107.81501819 -68.1875 112.8125 C-68.75807129 113.58932129 -69.32864258 114.36614258 -69.91650391 115.16650391 C-73.85856761 120.51262152 -77.89890567 125.77499964 -82 131 C-81.34 131.33 -80.68 131.66 -80 132 C-77.10406598 130.87211191 -74.31281793 129.67436982 -71.4921875 128.37890625 C-70.65156769 128.00015854 -69.81094788 127.62141083 -68.94485474 127.23118591 C-66.25151147 126.01563375 -63.5632751 124.78921423 -60.875 123.5625 C-59.05371048 122.73821367 -57.23209982 121.91463652 -55.41015625 121.09179688 C-50.9363314 119.06941886 -46.46705788 117.03727876 -42 115 C-40.89661782 115.9363831 -39.79458971 116.87436188 -38.69311523 117.81298828 C-38.07927475 118.33514923 -37.46543427 118.85731018 -36.83299255 119.39529419 C-34.12047147 121.76998924 -31.58776807 124.30432601 -29.0625 126.875 C-28.56943359 127.37257812 -28.07636719 127.87015625 -27.56835938 128.3828125 C-26.37654008 129.58620285 -25.18791322 130.79275365 -24 132 C-20.95240004 129.07532844 -18.34466882 126.32387029 -16.1875 122.6875 C-15.76855469 121.99011719 -15.34960938 121.29273438 -14.91796875 120.57421875 C-14.61503906 120.05472656 -14.31210938 119.53523438 -14 119 C-5.55823333 121.713425 2.71110853 124.85734053 11 128 C9.64913667 125.13320326 8.11382476 122.63519778 6.234375 120.0859375 C5.68136719 119.33441406 5.12835938 118.58289063 4.55859375 117.80859375 C3.96175781 117.00550781 3.36492187 116.20242187 2.75 115.375 C1.81607422 114.11236328 1.81607422 114.11236328 0.86328125 112.82421875 C-3.90162556 106.41028987 -8.78093749 100.09233826 -13.72070312 93.8125 C-18.83930178 87.28008323 -23.73901546 80.59558091 -28.55859375 73.83984375 C-29.38810547 72.69322266 -29.38810547 72.69322266 -30.234375 71.5234375 C-30.72131836 70.84200684 -31.20826172 70.16057617 -31.70996094 69.45849609 C-32.13567383 68.97719238 -32.56138672 68.49588867 -33 68 C-33.66 68 -34.32 68 -35 68 Z " fill="#000000" transform="translate(173,20)"/>
<path d="M0 0 C0.9075 0.391875 1.815 0.78375 2.75 1.1875 C3.08 3.4975 3.41 5.8075 3.75 8.1875 C2.0625 9.75 2.0625 9.75 -0.25 11.1875 C-3.62036311 10.94675978 -4.83798021 10.59951979 -7.25 8.1875 C-7.625 5.25 -7.625 5.25 -7.25 2.1875 C-4.7566461 -0.88124326 -3.86315383 -0.96578846 0 0 Z " fill="#000000" transform="translate(826.25,165.8125)"/>
<path d="M0 0 C2.31 0 4.62 0 7 0 C7.41342651 1.06021362 7.41342651 1.06021362 7.83520508 2.1418457 C9.15892345 5.5328678 10.48518225 8.92288508 11.8125 12.3125 C12.17707306 13.24364624 12.17707306 13.24364624 12.54901123 14.19360352 C16.78175369 24.99432292 21.12594927 35.74535301 25.55786133 46.46606445 C25.99509521 47.52913818 26.4323291 48.59221191 26.8828125 49.6875 C27.26840332 50.61949219 27.65399414 51.55148438 28.05126953 52.51171875 C29 55 29 55 29.44091797 57.25390625 C29.62541504 57.83011719 29.80991211 58.40632813 30 59 C32.99615946 60.3045656 32.99615946 60.3045656 36 61 C36 61.66 36 62.32 36 63 C28.08 63 20.16 63 12 63 C12 62.01 12 61.02 12 60 C13.65 59.34 15.3 58.68 17 58 C16.3567385 51.88901573 14.47062263 48.17655659 12 42 C4.41 41.67 -3.18 41.34 -11 41 C-11.66 43.97 -12.32 46.94 -13 50 C-13.66666667 53 -14.33333333 56 -15 59 C-13.02 59.33 -11.04 59.66 -9 60 C-9 60.99 -9 61.98 -9 63 C-15.6 63 -22.2 63 -29 63 C-29 62.01 -29 61.02 -29 60 C-28.08992188 59.84184814 -27.17984375 59.68369629 -26.2421875 59.52075195 C-21.55948779 57.32432601 -20.86271381 54.35206213 -19.125 49.66796875 C-18.79185791 48.82461472 -18.45871582 47.98126068 -18.11547852 47.11235046 C-17.05594641 44.41590026 -16.02781858 41.70867473 -15 39 C-14.32115264 37.26039299 -13.64019008 35.52160979 -12.95703125 33.78369141 C-10.94173517 28.63780945 -8.96830367 23.47649987 -7 18.3125 C-6.31409114 16.52007165 -5.62789427 14.72775349 -4.94140625 12.93554688 C-3.29097003 8.62495242 -1.6443612 4.31291534 0 0 Z M0 12 C-1.34425253 15.41247084 -2.67347169 18.83060439 -4 22.25 C-4.57234375 23.70212891 -4.57234375 23.70212891 -5.15625 25.18359375 C-5.5171875 26.11816406 -5.878125 27.05273438 -6.25 28.015625 C-6.58515625 28.87446289 -6.9203125 29.73330078 -7.265625 30.61816406 C-8.1964243 33.22165986 -8.1964243 33.22165986 -8 37 C-2.06 37 3.88 37 10 37 C8.43889635 28.25781959 5.21518143 20.24016625 2 12 C1.34 12 0.68 12 0 12 Z " fill="#000000" transform="translate(323,181)"/>
<path d="M0 0 C2.31 0 4.62 0 7 0 C8.5852141 3.87423302 10.16792289 7.74948497 11.75 11.625 C12.23718506 12.81730225 12.72437012 14.00960449 13.22631836 15.23803711 C15.96304404 21.94592434 18.66874587 28.66494098 21.33203125 35.40234375 C21.87726453 36.77848867 22.42251177 38.15462805 22.96777344 39.53076172 C23.76413157 41.54127835 24.5585651 43.55245466 25.34729004 45.565979 C26.08251203 47.44288385 26.82431248 49.31720776 27.56640625 51.19140625 C27.98865479 52.26592041 28.41090332 53.34043457 28.84594727 54.44750977 C29.86407628 57.09940979 29.86407628 57.09940979 32 59 C34.06874034 59.6425235 34.06874034 59.6425235 36 60 C36 60.99 36 61.98 36 63 C28.08 63 20.16 63 12 63 C12 62.01 12 61.02 12 60 C14.475 59.505 14.475 59.505 17 59 C16.62517104 54.72694987 16.21390798 51.1090044 14.4375 47.1875 C13 44 13 44 13 41 C5.41 41.33 -2.18 41.66 -10 42 C-10.99 44.5678125 -10.99 44.5678125 -12 47.1875 C-12.37125 48.15042969 -12.7425 49.11335938 -13.125 50.10546875 C-13.97636772 52.92182358 -14.17072647 55.08164439 -14 58 C-12.02 58.99 -10.04 59.98 -8 61 C-8 61.66 -8 62.32 -8 63 C-14.6 63 -21.2 63 -28 63 C-28 62.01 -28 61.02 -28 60 C-27.25621094 59.84144531 -26.51242187 59.68289062 -25.74609375 59.51953125 C-21.59931077 57.22493867 -20.76117885 53.97926749 -19.0625 49.6875 C-18.69842041 48.80553955 -18.33434082 47.9235791 -17.95922852 47.01489258 C-11.63748265 31.47966137 -5.85990209 15.71365496 0 0 Z M0 12 C-1.34117853 15.60129621 -2.6715839 19.20647859 -4 22.8125 C-4.57234375 24.34874023 -4.57234375 24.34874023 -5.15625 25.91601562 C-5.5171875 26.89892578 -5.878125 27.88183594 -6.25 28.89453125 C-6.58515625 29.80050049 -6.9203125 30.70646973 -7.265625 31.63989258 C-8.14855529 34.06546774 -8.14855529 34.06546774 -8 37 C-1.73 37 4.54 37 11 37 C9.03097413 31.09292238 7.01973895 25.25262088 4.8125 19.4375 C4.53986328 18.71498047 4.26722656 17.99246094 3.98632812 17.24804688 C3.3257582 15.49811603 2.66310684 13.74897111 2 12 C1.34 12 0.68 12 0 12 Z " fill="#000000" transform="translate(487,181)"/>
<path d="M0 0 C8.58 0 17.16 0 26 0 C26 0.66 26 1.32 26 2 C25.030625 2.28875 24.06125 2.5775 23.0625 2.875 C19.89335797 3.64214682 19.89335797 3.64214682 19 6 C18.90960094 7.6648064 18.88244743 9.33323421 18.88647461 11.00048828 C18.88658791 12.56188034 18.88658791 12.56188034 18.88670349 14.15481567 C18.89186478 15.28192963 18.89702606 16.40904358 18.90234375 17.5703125 C18.90446617 19.29735916 18.90446617 19.29735916 18.90663147 21.05929565 C18.91224284 24.74788986 18.9247973 28.43642405 18.9375 32.125 C18.94251353 34.62109288 18.94707669 37.1171867 18.95117188 39.61328125 C18.96221597 45.74220809 18.9789652 51.87109976 19 58 C22.465 58.495 22.465 58.495 26 59 C26 59.99 26 60.98 26 62 C17.42 62 8.84 62 0 62 C0 61.01 0 60.02 0 59 C3.465 58.505 3.465 58.505 7 58 C7.0252908 50.63102956 7.04284179 43.26207026 7.05493164 35.89306641 C7.05997003 33.38459861 7.06680084 30.87613376 7.07543945 28.36767578 C7.08752661 24.7685473 7.09323315 21.16945753 7.09765625 17.5703125 C7.10281754 16.44319855 7.10797882 15.31608459 7.11329651 14.15481567 C7.11337204 13.11388763 7.11344757 12.07295959 7.11352539 11.00048828 C7.115746 10.08115509 7.11796661 9.1618219 7.12025452 8.21463013 C7.14510529 5.95849412 7.14510529 5.95849412 6 4 C4.02111039 3.27306096 2.02045442 2.60183749 0 2 C0 1.34 0 0.68 0 0 Z " fill="#000000" transform="translate(378,182)"/>
<path d="M0 0 C7.26 0 14.52 0 22 0 C22 0.66 22 1.32 22 2 C21.472854 2.16983398 20.94570801 2.33966797 20.40258789 2.51464844 C12.7818051 5.38540603 7.98205598 10.44103013 2.4375 16.25 C1.52419922 17.18585938 0.61089844 18.12171875 -0.33007812 19.0859375 C-2.56524772 21.37961939 -4.78783274 23.68416232 -7 26 C-3.96892144 30.78514097 -0.5542613 35.00394051 3.1875 39.25 C3.76121338 39.90315186 4.33492676 40.55630371 4.92602539 41.22924805 C6.07896384 42.54051198 7.23315594 43.85067481 8.38867188 45.15966797 C9.82557342 46.80078371 11.23800183 48.45851948 12.640625 50.12890625 C13.39859375 51.01449219 14.1565625 51.90007812 14.9375 52.8125 C15.91009766 53.96685547 15.91009766 53.96685547 16.90234375 55.14453125 C19.43647953 57.38608525 21.75978417 58.12887512 25 59 C25 59.99 25 60.98 25 62 C11.30933976 64.21346004 11.30933976 64.21346004 6.06396484 60.70507812 C2.33117515 57.21002607 -0.64853903 53.13303499 -3.58935547 48.96679688 C-5.60356504 46.15847698 -7.82523219 43.5712917 -10.0625 40.9375 C-12.95080374 37.42829411 -15.51828566 33.80824317 -18 30 C-17.07058594 29.09378906 -16.14117187 28.18757813 -15.18359375 27.25390625 C-3.10622214 16.6820263 -3.10622214 16.6820263 4 3 C2.68 2.67 1.36 2.34 0 2 C0 1.34 0 0.68 0 0 Z " fill="#000000" transform="translate(415,182)"/>
<path d="M0 0 C5.65587346 -0.09958872 11.31122578 -0.17180596 16.96777344 -0.21972656 C18.88811139 -0.23972336 20.80838939 -0.26693006 22.72851562 -0.30175781 C36.15789763 -0.53907537 46.99620472 -0.60406265 57.30859375 9.0625 C64.36966477 17.15093239 64.62606104 26.76401547 64.17480469 36.98876953 C63.51163842 44.61888647 58.65004434 51.09759858 53 56 C45.3890765 60.7260434 39.18019441 62.15422138 30.296875 62.09765625 C29.04019012 62.09553383 29.04019012 62.09553383 27.75811768 62.09336853 C25.08870843 62.08778197 22.4193838 62.07523194 19.75 62.0625 C17.93750121 62.05748326 16.12500111 62.05292066 14.3125 62.04882812 C9.87496752 62.03781694 5.43749809 62.02056155 1 62 C1 61.01 1 60.02 1 59 C2.98 58.34 4.96 57.68 7 57 C7 39.84 7 22.68 7 5 C4.69 4.01 2.38 3.02 0 2 C0 1.34 0 0.68 0 0 Z M19 4 C18.94941855 11.36894815 18.91431667 18.73785178 18.89013672 26.10693359 C18.88005989 28.61541415 18.86639821 31.12388292 18.84912109 33.63232422 C18.82494663 37.23147488 18.81353388 40.83047067 18.8046875 44.4296875 C18.79436493 45.55680145 18.78404236 46.68391541 18.77340698 47.84518433 C18.77325592 48.88611237 18.77310486 49.92704041 18.77294922 50.99951172 C18.768508 51.91884491 18.76406677 52.8381781 18.75949097 53.78536987 C18.78836408 56.20611776 18.78836408 56.20611776 21 58 C29.1491857 59.01864821 36.9368562 58.36946681 44 54 C49.72740666 49.49602803 52.19176955 44.28337132 53.62890625 37.22265625 C54.6008817 28.78181686 54.25915845 20.00155441 49 13 C44.56739802 7.95719567 39.578925 5.21116601 33 4 C30.56485869 3.92452555 28.12758241 3.90408845 25.69140625 3.9296875 C23.80917358 3.94491455 23.80917358 3.94491455 21.88891602 3.96044922 C20.93557373 3.97350098 19.98223145 3.98655273 19 4 Z " fill="#000000" transform="translate(542,182)"/>
<path d="M0 0 C15.51 0 31.02 0 47 0 C47 4.29 47 8.58 47 13 C46.01 13 45.02 13 44 13 C43.5875 12.05125 43.175 11.1025 42.75 10.125 C40.89852836 6.81880064 40.38673022 6.27211488 37 5 C34.78064407 4.72775191 34.78064407 4.72775191 32.453125 4.8046875 C31.69161133 4.80968262 30.93009766 4.81467773 30.14550781 4.81982422 C29.18999023 4.83803223 28.23447266 4.85624023 27.25 4.875 C24.1975 4.91625 21.145 4.9575 18 5 C18 11.93 18 18.86 18 26 C21.58875 26.185625 21.58875 26.185625 25.25 26.375 C26.37003418 26.45693604 26.37003418 26.45693604 27.51269531 26.54052734 C29.64876835 26.64912841 29.64876835 26.64912841 33 26 C35.39932626 23.08976575 35.39932626 23.08976575 37 20 C37.66 20 38.32 20 39 20 C39 25.94 39 31.88 39 38 C38.01 38 37.02 38 36 38 C35.67 36.35 35.34 34.7 35 33 C29.39 33 23.78 33 18 33 C17.979375 35.495625 17.95875 37.99125 17.9375 40.5625 C17.928396 41.33408447 17.91929199 42.10566895 17.90991211 42.90063477 C17.89234206 47.34812556 18.10438681 51.62332422 19 56 C22.36313909 57.68156955 26.11766587 57.22674377 29.8125 57.25 C30.62009766 57.270625 31.42769531 57.29125 32.25976562 57.3125 C36.99081467 57.34349786 40.20538512 57.14308666 44 54 C45.39962481 52.2348064 45.39962481 52.2348064 46.3125 50.3125 C46.869375 49.219375 47.42625 48.12625 48 47 C48.99 47 49.98 47 51 47 C50.430756 52.40781799 49.53371845 56.63198544 48 62 C31.83 62 15.66 62 -1 62 C-1 61.01 -1 60.02 -1 59 C2.465 58.505 2.465 58.505 6 58 C6.0252908 50.63102956 6.04284179 43.26207026 6.05493164 35.89306641 C6.05997003 33.38459861 6.06680084 30.87613376 6.07543945 28.36767578 C6.08752661 24.7685473 6.09323315 21.16945753 6.09765625 17.5703125 C6.10281754 16.44319855 6.10797882 15.31608459 6.11329651 14.15481567 C6.11337204 13.11388763 6.11344757 12.07295959 6.11352539 11.00048828 C6.115746 10.08115509 6.11796661 9.1618219 6.12025452 8.21463013 C6.14510529 5.95849412 6.14510529 5.95849412 5 4 C3.35636866 3.27840576 1.68949614 2.60648579 0 2 C0 1.34 0 0.68 0 0 Z " fill="#000000" transform="translate(630,182)"/>
<path d="M0 0 C6.6 0 13.2 0 20 0 C26.90340067 14.90360331 33.62360477 29.86292987 40 45 C46.41572216 31.71674425 52.13388445 18.13441845 57.89599609 4.55932617 C58.55896146 3.02242525 59.25145641 1.49708717 60 0 C66.27 0 72.54 0 79 0 C79 0.66 79 1.32 79 2 C77.02 2.66 75.04 3.32 73 4 C72.66732978 22.10237824 73.60470507 39.96507081 75 58 C76.98 58.33 78.96 58.66 81 59 C81 59.99 81 60.98 81 62 C72.42 62 63.84 62 55 62 C55.33 61.01 55.66 60.02 56 59 C59.0625 57.8125 59.0625 57.8125 62 57 C62.03009245 53.25001824 62.04714884 49.50006875 62.0625 45.75 C62.07506836 44.21279297 62.07506836 44.21279297 62.08789062 42.64453125 C62.11903104 32.36819319 61.51590114 22.31802277 61 12 C54.07 28.17 47.14 44.34 40 61 C38.35 61 36.7 61 35 61 C19.73035025 27.49821699 19.73035025 27.49821699 14 13 C12.74241619 28.02076832 11.64521063 42.92145168 12 58 C13.98 58.33 15.96 58.66 18 59 C18 59.99 18 60.98 18 62 C11.4 62 4.8 62 -2 62 C-2 61.01 -2 60.02 -2 59 C0.97 58.505 0.97 58.505 4 58 C5.21225556 46.31591978 6.25295945 34.61835652 7.10113525 22.90216064 C7.2002919 21.55189834 7.30327273 20.20191136 7.41009521 18.85223389 C7.56020577 16.94136709 7.69448036 15.02927647 7.828125 13.1171875 C7.9096582 12.00972168 7.99119141 10.90225586 8.07519531 9.76123047 C8.23901183 6.78235322 8.23901183 6.78235322 6 4 C2.94570927 2.78715124 2.94570927 2.78715124 0 2 C0 1.34 0 0.68 0 0 Z " fill="#000000" transform="translate(706,182)"/>
<path d="M0 0 C7.92 0 15.84 0 24 0 C24 0.66 24 1.32 24 2 C22.7934375 2.433125 22.7934375 2.433125 21.5625 2.875 C18.8673532 3.73262568 18.8673532 3.73262568 18 6 C17.89995385 7.55670354 17.86167459 9.11759055 17.85473633 10.67749023 C17.84835648 11.64867294 17.84197662 12.61985565 17.83540344 13.62046814 C17.83429062 14.67254959 17.8331778 15.72463104 17.83203125 16.80859375 C17.82870285 17.88625504 17.82537445 18.96391632 17.82194519 20.07423401 C17.81687583 22.35653251 17.81453687 24.63883845 17.81469727 26.92114258 C17.81251121 30.41955736 17.79435659 33.9176567 17.77539062 37.41601562 C17.77245667 39.63020725 17.77047189 41.84440038 17.76953125 44.05859375 C17.76234573 45.10865097 17.75516022 46.15870819 17.74775696 47.24058533 C17.75083359 48.2149202 17.75391022 49.18925507 17.75708008 50.19311523 C17.75565506 51.05090073 17.75423004 51.90868622 17.75276184 52.79246521 C17.86152125 55.2891475 17.86152125 55.2891475 20 58 C22.56282742 58.72965366 22.56282742 58.72965366 25 59 C25 59.99 25 60.98 25 62 C16.42 62 7.84 62 -1 62 C-0.67 61.01 -0.34 60.02 0 59 C2.97 58.505 2.97 58.505 6 58 C6.0252908 50.63102956 6.04284179 43.26207026 6.05493164 35.89306641 C6.05997003 33.38459861 6.06680084 30.87613376 6.07543945 28.36767578 C6.08752661 24.7685473 6.09323315 21.16945753 6.09765625 17.5703125 C6.10281754 16.44319855 6.10797882 15.31608459 6.11329651 14.15481567 C6.11337204 13.11388763 6.11344757 12.07295959 6.11352539 11.00048828 C6.115746 10.08115509 6.11796661 9.1618219 6.12025452 8.21463013 C6.14510529 5.95849412 6.14510529 5.95849412 5 4 C3.35636866 3.27840576 1.68949614 2.60648579 0 2 C0 1.34 0 0.68 0 0 Z " fill="#000000" transform="translate(812,182)"/>
</svg>
